<?xml version="1.0" encoding="UTF-8" standalone="no"?>
<!-- Created with Inkscape (http://www.inkscape.org/) -->

<svg
   xmlns:dc="http://purl.org/dc/elements/1.1/"
   xmlns:cc="http://creativecommons.org/ns#"
   xmlns:rdf="http://www.w3.org/1999/02/22-rdf-syntax-ns#"
   xmlns:svg="http://www.w3.org/2000/svg"
   xmlns="http://www.w3.org/2000/svg"
   xmlns:sodipodi="http://sodipodi.sourceforge.net/DTD/sodipodi-0.dtd"
   xmlns:inkscape="http://www.inkscape.org/namespaces/inkscape"
   width="255"
   height="100"
   preserveAspectRatio="xMinYMin meet"
   viewBox="0 0 255 100"
   id="svg2"
   version="1.1"
   inkscape:version="0.48.3.1 r9886"
   sodipodi:docname="New document 1">
  <sodipodi:namedview
     id="base"
     pagecolor="#ffffff"
     bordercolor="#666666"
     borderopacity="1.0"
     inkscape:pageopacity="0.0"
     inkscape:pageshadow="2"
     inkscape:zoom="1.4"
     inkscape:cx="-127.85714"
     inkscape:cy="91.428571"
     inkscape:document-units="px"
     inkscape:current-layer="layer1"
     showgrid="false"
     inkscape:window-width="1920"
     inkscape:window-height="1176"
     inkscape:window-x="0"
     inkscape:window-y="24"
     inkscape:window-maximized="1"
     showguides="true"
     inkscape:guide-bbox="true">
    <sodipodi:guide
       id="guide3947"
       position="25,133.57143"
       orientation="1,0" />
    <sodipodi:guide
       id="guide3949"
       position="117.85714,50"
       orientation="0,1" />
    <sodipodi:guide
       id="guide3951"
       position="40,92.142857"
       orientation="1,0" />
    <sodipodi:guide
       id="guide3953"
       position="10,252.85714"
       orientation="1,0" />
    <sodipodi:guide
       id="guide3955"
       position="132.14286,35"
       orientation="0,1" />
    <sodipodi:guide
       id="guide3957"
       position="195,65"
       orientation="0,1" />
  </sodipodi:namedview>
  <defs
     id="defs4" />
  <metadata
     id="metadata7">
    <rdf:RDF>
      <cc:Work
         rdf:about="">
        <dc:format>image/svg+xml</dc:format>
        <dc:type
           rdf:resource="http://purl.org/dc/dcmitype/StillImage" />
        <dc:title></dc:title>
      </cc:Work>
    </rdf:RDF>
  </metadata>
  <g
     transform="translate(0,-952.36214)"
     inkscape:label="Layer 1"
     inkscape:groupmode="layer"
     id="layer1">
    <path
       inkscape:connector-curvature="0"
       style="fill:none;stroke:#000000;stroke-width:5;stroke-linecap:round;stroke-linejoin:round;stroke-miterlimit:4;stroke-opacity:1;stroke-dasharray:none;stroke-dashoffset:16.99999979"
       d="m 55,1002.3622 c 0.639731,-6e-4 1.279461,-0.6431 1.919192,-1.6922 0.639731,-1.04918 1.279461,-2.4878 1.919192,-3.74757 0.63973,-1.25978 1.279461,-2.31331 1.919192,-2.60817 0.63973,-0.29485 1.279461,0.19331 1.919192,1.6392 0.63973,1.4459 1.279461,3.85702 1.919192,6.85424 0.63973,2.9972 1.279461,6.5653 1.919192,9.8931 0.63973,3.3278 1.279461,6.3829 1.919191,8.3028 0.639731,1.92 1.279462,2.6698 1.919192,1.7967 0.639731,-0.8732 1.279462,-3.3894 1.919192,-7.285 0.639731,-3.8955 1.279462,-9.164 1.919192,-14.8453 0.639731,-5.68138 1.279461,-11.74339 1.919192,-16.90074 0.639731,-5.15734 1.279461,-9.36494 1.919192,-11.58528 0.639731,-2.22035 1.279461,-2.41554 1.919192,-0.31172 0.639731,2.10381 1.279461,6.51927 1.919192,12.54892 0.639731,6.02965 1.279461,13.65336 1.919192,21.42532 0.63973,7.7721 1.279461,15.6465 1.919192,22.0114 0.63973,6.3648 1.279461,11.1676 1.919192,13.3289 0.63973,2.1612 1.279461,1.6447 1.919192,-1.5903 0.63973,-3.2349 1.279461,-9.1918 1.919191,-16.7962 0.639731,-7.6045 1.279462,-16.8244 1.919192,-25.87787 0.639731,-9.05349 1.279462,-17.88591 1.919192,-24.73845 0.639731,-6.85255 1.279462,-11.67113 1.919192,-13.46488 0.639731,-1.79376 1.279462,-0.53237 1.919192,3.57179 0.639731,4.10417 1.279466,11.04452 1.919196,19.47445 0.63973,8.42993 1.27946,18.30866 1.91919,27.70596 0.63973,9.3974 1.27946,18.2558 1.91919,24.8612 0.63973,6.6055 1.27946,10.9083 1.91919,12.1183 0.63973,1.2099 1.27946,-0.694 1.91919,-5.264 0.63973,-4.57 1.27947,-11.7902 1.9192,-20.1832 0.63973,-8.3929 1.27946,-17.9137 1.91919,-26.68934 0.63973,-8.77562 1.27946,-16.75211 1.91919,-22.442 0.63973,-5.68989 1.27946,-9.05334 1.91919,-9.58137 0.63973,-0.52803 1.27946,1.78893 1.91919,6.32129 0.63973,4.53236 1.27946,11.25705 1.9192,18.72888 0.63973,7.47183 1.27946,15.64694 1.91919,22.91024 0.63973,7.2634 1.27946,13.5706 1.91919,17.813 0.63973,4.2424 1.27946,6.394 1.91919,6.2682 0.63973,-0.1258 1.27946,-2.5266 1.91919,-6.4746 0.63973,-3.9481 1.27946,-9.416 1.91919,-15.1571 0.63974,-5.7412 1.27947,-11.718 1.9192,-16.74734 0.63973,-5.02935 1.27946,-9.08116 1.91919,-11.53228 0.63973,-2.45112 1.27946,-3.29206 1.91919,-2.65584 0.63973,0.63622 1.27946,2.73609 1.91919,5.57572 0.63973,2.83963 1.27946,6.39132 1.91919,9.75712 0.63974,3.36582 1.27947,6.51892 1.9192,8.83582 0.63973,2.3169 1.27946,3.7852 1.91919,4.3173 0.63973,0.5322 1.27946,0.1356 1.91919,-0.78 0.63973,-0.9155 1.27946,-2.3278 1.91919,-3.6248 0.63973,-1.2969 1.27946,-2.4544 1.91919,-3.0388 0.63973,-0.5844 1.27947,-0.5833 1.9192,0 0.63973,0.5833 1.27946,1.7421 1.91919,3.0388 0.63973,1.2968 1.27946,2.7083 1.91919,3.6248 0.63973,0.9166 1.27946,1.3104 1.91919,0.78 0.63973,-0.5303 1.27946,-2.002 1.91919,-4.3173 0.63973,-2.3153 1.27946,-5.4704 1.9192,-8.83582 0.63973,-3.36545 1.27946,-6.91607 1.91919,-9.75712 0.63973,-2.84105 1.27946,-4.93665 1.91919,-5.57572 0.63973,-0.63906 1.27946,0.20781 1.91919,2.65584 0.63973,2.44803 1.27946,6.50476 1.91919,11.53228 0.63973,5.02754 1.27946,11.00564 1.9192,16.74734 0.63973,5.7417 1.27946,11.2061 1.91919,15.1571 0.63973,3.9509 1.27946,6.3444 1.91919,6.4746 0.63973,0.1303 1.27946,-2.0299 1.91919,-6.2682 0.63973,-4.2384 1.27946,-10.5514 1.91919,-17.813 0.63973,-7.2615 1.27946,-15.43699 1.91919,-22.91024 0.63974,-7.47325 1.27947,-14.19224 1.9192,-18.72888 0.63973,-4.53664 1.27946,-6.84383 1.91919,-6.32129 0.63973,0.52254 1.27946,3.89593 1.91919,9.58137 0.63973,5.68544 1.27946,13.66786 1.91919,22.442 0.63973,8.77414 1.27946,18.29414 1.91919,26.68934 0.63973,8.3952 1.27947,15.608 1.9192,20.1832 0.63973,4.5751 1.27946,6.4679 1.91919,5.264 0.63973,-1.204 1.27946,-5.5172 1.91919,-12.1183 0.63973,-6.601 1.27946,-15.4648 1.91919,-24.8612 0.63973,-9.3963 1.27946,-19.27318 1.91919,-27.70596 0.63973,-8.43277 1.27947,-15.36479 1.9192,-19.47445 0.63973,-4.10966 1.27946,-5.35967 1.91919,-3.57179 0.63973,1.78787 1.27946,6.61622 1.91919,13.46488 0.63973,6.84865 1.27946,15.68534 1.91919,24.73845 0.63973,9.05307 1.27946,18.27027 1.91919,25.87787 0.63973,7.6076 1.27946,13.556 1.9192,16.7962 0.63973,3.2403 1.27946,3.7464 1.91919,1.5903 0.63973,-2.1561 1.27946,-6.9671 1.91919,-13.3289 0.63973,-6.3619 1.27946,-14.2391 1.91919,-22.0114 0.63973,-7.77219 1.27946,-15.39258 1.91919,-21.42532 0.63973,-6.03274 1.27946,-10.44066 1.9192,-12.54892 0.63973,-2.10827 1.27946,-1.90474 1.91919,0.31172 0.63973,2.21645 1.27946,6.42975 1.91919,11.58528 0.63973,5.15554 1.27946,11.21862 1.91919,16.90074 0.63973,5.6821 1.27946,10.9472 1.91919,14.8453 0.63973,3.8982 1.27946,6.4086 1.91919,7.285 0.63974,0.8763 1.27947,0.121 1.9192,-1.7967 0.63973,-1.9177 1.27946,-4.9755 1.91919,-8.3028 0.63973,-3.3273 1.27946,-6.8948 1.91919,-9.8931 0.63973,-2.99831 1.27946,-5.40651 1.91919,-6.85424 0.63973,-1.44772 1.27946,-1.93257 1.91919,-1.6392 0.63973,0.29338 1.27947,1.34877 1.9192,2.60817 0.63973,1.25939 1.27946,2.69765 1.91919,3.74757 0.63973,1.0499 1.27946,1.6916 1.91919,1.6922"
       title="sin(x)*sin(10*x)"
       id="path3941" />
    <path
       inkscape:connector-curvature="0"
       id="path3959"
       d="m 10,1002.3622 30,0"
       style="fill:none;stroke:#000000;stroke-width:10;stroke-linecap:round;stroke-linejoin:miter;stroke-miterlimit:4;stroke-opacity:1;stroke-dasharray:none" />
    <path
       inkscape:connector-curvature="0"
       id="path3961"
       d="m 25,987.36218 0,30.00002 0,0"
       style="fill:none;stroke:#000000;stroke-width:10;stroke-linecap:round;stroke-linejoin:miter;stroke-miterlimit:4;stroke-opacity:1;stroke-dasharray:none" />
  </g>
</svg>
