<?xml version="1.0" encoding="UTF-8" standalone="no"?>
<svg
   xmlns:dc="http://purl.org/dc/elements/1.1/"
   xmlns:cc="http://creativecommons.org/ns#"
   xmlns:rdf="http://www.w3.org/1999/02/22-rdf-syntax-ns#"
   xmlns:svg="http://www.w3.org/2000/svg"
   xmlns="http://www.w3.org/2000/svg"
   version="1.1"
   id="svg4407"
   viewBox="0 0 120 120"
   preserveAspectRatio="xMinYMin meet"
   height="120"
   width="120">
  <defs
     id="defs4409" />
  <metadata
     id="metadata4412">
    <rdf:RDF>
      <cc:Work
         rdf:about="">
        <dc:format>image/svg+xml</dc:format>
        <dc:type
           rdf:resource="http://purl.org/dc/dcmitype/StillImage" />
        <dc:title></dc:title>
      </cc:Work>
    </rdf:RDF>
  </metadata>
  <script
     id="script"
     type="text/ecmascript"><![CDATA[
function setColor(c)
{
	document.getElementById("path0").style.stroke=c;
	document.getElementById("path1").style.stroke=c;
	document.getElementById("path2").style.stroke=c;
	document.getElementById("path3").style.stroke=c;
	document.getElementById("path4").style.stroke=c;
	document.getElementById("path5").style.stroke=c;
}

function disable()
{
	setColor("#cccccc");
}

function enable()
{
	setColor("#000000");
}
  ]]></script>
  <g
     transform="translate(0,-932.36218)"
     id="layer1">
    <path
       transform="matrix(1.3499312,0,0,1.3492499,44.354498,908.54124)"
       d="M 17.722432,44.262057 A 16.667517,16.920055 0 0 1 30.532066,29.02993 16.667517,16.920055 0 0 1 48.684211,36.875536 16.667517,16.920055 0 0 1 46.746155,56.806509 16.667517,16.920055 0 0 1 27.433281,60.897846"
       id="path0"
       style="fill:none;stroke:#000000;stroke-width:3.70482731;stroke-miterlimit:4;stroke-dasharray:none;stroke-opacity:1" />
    <path
       d="M 41.625589,60.721819 A 16.667517,16.920055 0 0 1 20.49474,54.913803 16.667517,16.920055 0 0 1 23.25745,32.868092 16.667517,16.920055 0 0 1 45.147737,32.615981"
       transform="matrix(0.74996175,0,0,0.7504485,16.036848,949.45474)"
       id="path1"
       style="fill:none;stroke:#000000;stroke-width:6.66484404;stroke-miterlimit:4;stroke-dasharray:none;stroke-opacity:1" />
    <path
       style="fill:none;stroke:#000000;stroke-width:4.7623682;stroke-miterlimit:4;stroke-opacity:1;stroke-dasharray:none;fill-opacity:1"
       id="path2"
       d="M 51.012705,45.501251 A 16.667517,16.920055 0 0 1 34.345188,62.421307 16.667517,16.920055 0 0 1 17.677671,45.501251 16.667517,16.920055 0 0 1 34.345188,28.581196 16.667517,16.920055 0 0 1 51.012705,45.501251 Z"
       transform="matrix(1.0499465,0,0,1.0498492,26.896258,938.3419)" />
    <path
       style="fill:none;stroke:#000000;stroke-width:6.05408239;stroke-miterlimit:4;stroke-opacity:1;stroke-dasharray:none"
       id="path3"
       d="M 51.012705,45.501251 A 16.667517,16.920055 0 0 1 34.345188,62.421307 16.667517,16.920055 0 0 1 17.677671,45.501251 16.667517,16.920055 0 0 1 34.345188,28.581196 16.667517,16.920055 0 0 1 51.012705,45.501251 Z"
       transform="matrix(0.82571933,0,0,0.8260586,27.324537,984.13101)" />
    <path
       transform="matrix(0.2999847,0,0,0.30134743,18.56246,945.73913)"
       d="M 51.012705,45.501251 A 16.667517,16.920055 0 0 1 34.345188,62.421307 16.667517,16.920055 0 0 1 17.677671,45.501251 16.667517,16.920055 0 0 1 34.345188,28.581196 16.667517,16.920055 0 0 1 51.012705,45.501251 Z"
       id="path4"
       style="fill:none;stroke:#000000;stroke-width:16.62978745;stroke-miterlimit:4;stroke-opacity:1;stroke-dasharray:none" />
    <path
       transform="matrix(0.2999847,0,0,0.30134743,79.600545,1008.3459)"
       d="M 51.012705,45.501251 A 16.667517,16.920055 0 0 1 34.345188,62.421307 16.667517,16.920055 0 0 1 17.677671,45.501251 16.667517,16.920055 0 0 1 34.345188,28.581196 16.667517,16.920055 0 0 1 51.012705,45.501251 Z"
       id="path5"
       style="fill:none;stroke:#000000;stroke-width:16.62978745;stroke-miterlimit:4;stroke-opacity:1;stroke-dasharray:none" />
  </g>
</svg>
