<?xml version="1.0" encoding="UTF-8" standalone="no"?>
<!-- Created with Inkscape (http://www.inkscape.org/) -->

<svg
   xmlns:dc="http://purl.org/dc/elements/1.1/"
   xmlns:cc="http://creativecommons.org/ns#"
   xmlns:rdf="http://www.w3.org/1999/02/22-rdf-syntax-ns#"
   xmlns:svg="http://www.w3.org/2000/svg"
   xmlns="http://www.w3.org/2000/svg"
   xmlns:sodipodi="http://sodipodi.sourceforge.net/DTD/sodipodi-0.dtd"
   xmlns:inkscape="http://www.inkscape.org/namespaces/inkscape"
   width="220"
   height="220"
   preserveAspectRatio="xMinYMin meet"
   viewBox="0 0 220 220"
   id="svg4986"
   version="1.1"
   inkscape:version="0.48.3.1 r9886"
   sodipodi:docname="tone.svg">
  <sodipodi:namedview
     id="base"
     pagecolor="#ffffff"
     bordercolor="#666666"
     borderopacity="1.0"
     inkscape:pageopacity="0.0"
     inkscape:pageshadow="2"
     inkscape:zoom="0.98994949"
     inkscape:cx="87.319622"
     inkscape:cy="120.20411"
     inkscape:document-units="px"
     inkscape:current-layer="layer1"
     showgrid="false"
     inkscape:window-width="1118"
     inkscape:window-height="610"
     inkscape:window-x="135"
     inkscape:window-y="73"
     inkscape:window-maximized="0"
     fit-margin-top="5"
     fit-margin-left="5"
     fit-margin-right="5"
     fit-margin-bottom="5" />
  <defs
     id="defs4988" />
  <metadata
     id="metadata4991">
    <rdf:RDF>
      <cc:Work
         rdf:about="">
        <dc:format>image/svg+xml</dc:format>
        <dc:type
           rdf:resource="http://purl.org/dc/dcmitype/StillImage" />
        <dc:title />
      </cc:Work>
    </rdf:RDF>
  </metadata>
  <g
     id="layer1"
     inkscape:groupmode="layer"
     inkscape:label="Layer 1"
     transform="translate(-55.764997,-632.46424)">
    <path
       id="path5001"
       title="sin(x)*sin(10*x)"
       d="m 68.264996,742.464 c 0.656566,-3.3e-4 1.313131,-0.33303 1.969697,-0.96527 0.656566,-0.63223 1.313131,-1.56439 1.969697,-2.70117 0.656566,-1.13679 1.313131,-2.47813 1.969697,-3.88302 0.656566,-1.40489 1.313131,-2.87202 1.969697,-4.23667 0.656566,-1.36466 1.313131,-2.62441 1.969697,-3.61707 0.656566,-0.99266 1.313131,-1.71493 1.969697,-2.03395 0.656565,-0.31902 1.313131,-0.23105 1.969697,0.34397 0.656565,0.57501 1.313131,1.64074 1.969697,3.20763 0.656565,1.56688 1.313131,3.63798 1.969697,6.14666 0.656565,2.50868 1.313131,5.45689 1.969697,8.70416 0.656565,3.24727 1.313131,6.79406 1.969697,10.44006 0.656565,3.646 1.313131,7.38996 1.969697,10.99495 0.656565,3.605 1.313131,7.06806 1.969697,10.14548 0.656565,3.07742 1.313131,5.76472 1.969697,7.84405 0.656565,2.07932 1.313131,3.54512 1.969697,4.23667 0.656565,0.69155 1.313131,0.60284 1.969697,-0.34397 0.656562,-0.9468 1.313132,-2.75748 1.969692,-5.41034 0.65657,-2.65287 1.31314,-6.15277 1.9697,-10.37365 0.65657,-4.22088 1.31313,-9.16599 1.9697,-14.61297 0.65657,-5.44697 1.31313,-11.39699 1.9697,-17.55199 0.65656,-6.15501 1.31313,-12.51381 1.96969,-18.73384 0.65657,-6.22003 1.31313,-12.29774 1.9697,-17.88437 0.65657,-5.58664 1.31313,-10.67655 1.9697,-14.95598 0.65656,-4.27944 1.31313,-7.74116 1.96969,-10.14548 0.65657,-2.40432 1.31314,-3.74315 1.9697,-3.88302 0.65657,-0.13986 1.31313,0.92729 1.9697,3.20763 0.65656,2.28034 1.31313,5.78099 1.9697,10.37365 0.65656,4.59267 1.31313,10.28272 1.96969,16.81568 0.65657,6.53297 1.31313,13.91178 1.9697,21.77899 0.65656,7.8672 1.31313,16.2229 1.9697,24.64264 0.65656,8.41974 1.31313,16.90066 1.96969,24.9963 0.65657,8.09564 1.31313,15.8004 1.9697,22.69487 0.65657,6.89447 1.31313,12.97084 1.9697,17.88437 0.65656,4.91353 1.31313,8.65498 1.96969,10.99495 0.65657,2.33997 1.31314,3.26875 1.9697,2.70117 0.65657,-0.56757 1.31313,-2.64066 1.9697,-6.14666 0.65656,-3.506 1.31313,-8.45253 1.96969,-14.61296 0.65657,-6.16044 1.31314,-13.53999 1.9697,-21.77899 0.65657,-8.23899 1.31313,-17.33964 1.9697,-26.84536 0.65656,-9.50572 1.31313,-19.41544 1.9697,-29.22328 0.65656,-9.80784 1.31313,-19.5095 1.96969,-28.60368 0.65657,-9.09418 1.31313,-17.57377 1.9697,-24.9963 0.65657,-7.42253 1.31313,-13.77883 1.9697,-18.73384 0.65656,-4.95501 1.31313,-8.49842 1.96969,-10.44007 0.65657,-1.94164 1.31313,-2.27115 1.9697,-0.96526 0.65657,1.30589 1.31313,4.25649 1.9697,8.70416 0.65656,4.44766 1.31313,10.39966 1.96969,17.55199 0.65657,7.15233 1.31314,15.50945 1.9697,24.64265 0.65657,9.13319 1.31313,19.04365 1.9697,29.22328 0.65656,10.17963 1.31313,20.62624 1.9697,30.8064 0.65656,10.18016 1.31313,20.08855 1.96969,29.22328 0.65657,9.13474 1.31313,17.48793 1.9697,24.64265 0.65657,7.15471 1.31313,13.10135 1.9697,17.55199 0.65656,4.45065 1.31313,7.39502 1.96969,8.70416 0.65657,1.30915 1.31313,0.97319 1.9697,-0.96526 0.65657,-1.93846 1.31313,-5.48785 1.9697,-10.44007 0.65656,-4.95222 1.31313,-11.31341 1.96969,-18.73384 0.65657,-7.42043 1.31314,-15.90334 1.9697,-24.9963 0.65657,-9.09296 1.31313,-18.79604 1.9697,-28.60368 0.65656,-9.80763 1.31313,-19.71676 1.9697,-29.22328 0.65656,-9.50653 1.31313,-18.60466 1.96969,-26.84536 0.65657,-8.24071 1.31313,-15.61614 1.9697,-21.77899 0.65656,-6.16284 1.31313,-11.10411 1.9697,-14.61296 0.65656,-3.50885 1.31313,-5.57612 1.96969,-6.14666 0.65657,-0.57055 1.31313,0.36399 1.9697,2.70117 0.65657,2.33719 1.31313,6.08373 1.9697,10.99495 0.65656,4.91122 1.31313,10.99151 1.96969,17.88437 0.65657,6.89285 1.31314,14.6 1.9697,22.69487 0.65657,8.09487 1.31313,16.57644 1.9697,24.9963 0.65656,8.41986 1.31313,16.77447 1.96969,24.64264 0.65657,7.86818 1.31314,15.24435 1.9697,21.77899 0.65657,6.53463 1.31313,12.22084 1.9697,16.81568 0.65656,4.59483 1.31313,8.0909 1.9697,10.37365 0.65656,2.28275 1.31313,3.34511 1.96969,3.20763 0.65657,-0.13748 1.31313,-1.48081 1.9697,-3.88302 0.65657,-2.40221 1.31313,-5.86766 1.9697,-10.14548 0.65656,-4.27782 1.31313,-9.37032 1.96969,-14.95598 0.65657,-5.58565 1.31313,-11.66462 1.9697,-17.88437 0.65657,-6.21975 1.31313,-12.57843 1.9697,-18.73384 0.65656,-6.1554 1.31313,-12.10402 1.96969,-17.55199 0.65657,-5.44797 1.31314,-10.39066 1.9697,-14.61297 0.65657,-4.2223 1.31313,-7.71911 1.9697,-10.37365 0.65656,-2.65454 1.31313,-4.46184 1.9697,-5.41034 0.65656,-0.94851 1.31313,-1.03398 1.96969,-0.34397 0.65657,0.69001 1.31313,2.15856 1.9697,4.23667 0.65657,2.07811 1.31313,4.7674 1.9697,7.84405 0.65656,3.07665 1.31313,6.54076 1.96969,10.14548 0.65657,3.60471 1.31313,7.34875 1.9697,10.99495 0.65657,3.64619 1.31313,7.1922 1.9697,10.44006 0.65656,3.24786 1.31313,6.19462 1.96969,8.70416 0.65657,2.50954 1.31314,4.57879 1.9697,6.14666 0.65657,1.56788 1.31313,2.63166 1.9697,3.20763 0.65656,0.57598 1.31313,0.66219 1.9697,0.34397 0.65656,-0.31822 1.31313,-1.04183 1.96969,-2.03395 0.65657,-0.99213 1.31313,-2.25262 1.9697,-3.61707 0.65656,-1.36445 1.31313,-2.83166 1.9697,-4.23667 0.65656,-1.40501 1.31313,-2.74583 1.96969,-3.88302 0.65657,-1.13719 1.31313,-2.06835 1.9697,-2.70117 0.65657,-0.63283 1.31313,-0.96494 1.9697,-0.96527"
       style="fill:none;fill-opacity:1;stroke:#000000;stroke-width:10;stroke-linecap:round;stroke-linejoin:round;stroke-miterlimit:4;stroke-opacity:1;stroke-dasharray:none;stroke-dashoffset:16.99999979000000039"
       inkscape:connector-curvature="0" />
  </g>
</svg>
